<svg width="24" height="24" viewBox="0 0 24 24" fill="none" xmlns="http://www.w3.org/2000/svg">
<path d="M18.25 3C19.766 3 21 4.234 21 5.75V18.25C21 19.766 19.766 21 18.25 21H5.75C4.234 21 3 19.766 3 18.25V5.75C3 4.234 4.234 3 5.75 3H18.25ZM13.3213 6C11.4205 6 10.3732 7.03782 10.373 8.92188V10.1787H9.01074C8.80622 10.1787 8.61423 10.2525 8.4707 10.3857C8.32661 10.5189 8.24827 10.6959 8.25 10.8838L8.25879 11.7227C8.26244 12.1042 8.60375 12.414 9.01953 12.4141H10.373V17.3018C10.3731 17.6869 10.7146 18 11.1338 18H12.3506C12.7697 17.9999 13.1113 17.6869 13.1113 17.3018V12.4141H14.3564C14.7422 12.4141 15.0679 12.1481 15.1123 11.7959L15.2178 10.958C15.243 10.7603 15.1744 10.5617 15.0303 10.4131C14.8861 10.2647 14.6796 10.1787 14.4629 10.1787H13.1123L13.1299 8.97656C13.1299 8.63635 13.4316 8.35938 13.8018 8.35938H14.6865C14.9972 8.35913 15.25 8.12711 15.25 7.8418V6.56543C15.25 6.29533 15.0289 6.07383 14.7354 6.0498C14.72 6.04856 14.0677 6.00001 13.3213 6Z" fill="white"/>
</svg>
