<svg width="24" height="24" viewBox="0 0 24 24" fill="none" xmlns="http://www.w3.org/2000/svg">
<path d="M6.4668 21.2H2.4668V9.20001H6.4668V21.2ZM4.4676 7.60001C3.3612 7.60001 2.4668 6.70321 2.4668 5.59921C2.4668 4.49521 3.3628 3.60001 4.4676 3.60001C5.57 3.60001 6.4668 4.49681 6.4668 5.59921C6.4668 6.70321 5.57 7.60001 4.4676 7.60001ZM20.8668 21.2H17.0212V15.36C17.0212 13.9672 16.9948 12.176 15.022 12.176C13.0196 12.176 12.7116 13.6928 12.7116 15.2592V21.2H8.8668V9.19121H12.558V10.832H12.61C13.1236 9.88801 14.3788 8.89281 16.2508 8.89281C20.1468 8.89281 20.8668 11.38 20.8668 14.6136V21.2Z" fill="white"/>
</svg>
