<svg width="24" height="24" viewBox="0 0 24 24" fill="none" xmlns="http://www.w3.org/2000/svg">
<path d="M21.6 6.2C21.4 5.3 20.7 4.7 19.8 4.4C18.3 4 12 4 12 4C12 4 5.7 4 4.2 4.4C3.3 4.6 2.6 5.3 2.4 6.2C2 7.7 2 12 2 12C2 12 2 16.3 2.4 17.8C2.6 18.7 3.3 19.3 4.2 19.6C5.7 20 12 20 12 20C12 20 18.3 20 19.8 19.6C20.7 19.4 21.3 18.7 21.6 17.8C22 16.3 22 12 22 12C22 12 22 7.7 21.6 6.2ZM19.6 17.3C19.6 17.5 19.4 17.6 19.2 17.7C18.5 17.9 14.9 18 12 18C9.1 18 5.5 17.9 4.7 17.6C4.5 17.6 4.4 17.4 4.3 17.2C4.1 16.4 4 13.7 4 12C4 10.3 4.1 7.6 4.3 6.7C4.3 6.5 4.5 6.4 4.7 6.3C5.5 6.1 9.1 6 12 6C14.9 6 18.5 6.1 19.3 6.3C19.5 6.3 19.6 6.5 19.7 6.7C19.9 7.6 20 10.3 20 12C20 13.7 19.9 16.4 19.6 17.3Z" fill="white"/>
<path d="M10 15.5V8.5L16 12L10 15.5Z" fill="white"/>
</svg>
