<svg width="24" height="24" viewBox="0 0 24 24" fill="none" xmlns="http://www.w3.org/2000/svg">
<path d="M18.25 3C19.766 3 21 4.234 21 5.75V18.25C21 19.766 19.766 21 18.25 21H5.75C4.234 21 3 19.766 3 18.25V5.75C3 4.234 4.234 3 5.75 3H18.25ZM12.21 8C10.4491 8 8.79481 8.13781 7.91406 8.33008C7.327 8.46754 6.81976 8.87979 6.71289 9.51172C6.60661 10.1711 6.5 11.0137 6.5 12.25C6.5 13.4863 6.60704 14.3013 6.74023 14.9883C6.84707 15.5928 7.35358 16.0326 7.94043 16.1699C8.87414 16.3622 10.4755 16.5 12.2363 16.5C13.9971 16.5 15.5982 16.3622 16.5322 16.1699C17.1193 16.0325 17.6265 15.6202 17.7334 14.9883C17.8402 14.3014 17.9733 13.4589 18 12.2227C18 10.9861 17.8666 10.1431 17.7334 9.45605C17.6265 8.85141 17.1193 8.41158 16.5322 8.27441C15.5984 8.13726 13.9709 8 12.21 8ZM10.5781 10.6787C10.5781 10.1983 11.0805 9.89745 11.4844 10.1357L13.8975 11.5605C14.3042 11.801 14.3044 12.4072 13.8975 12.6475L11.4844 14.0723C11.0808 14.3103 10.5781 14.0087 10.5781 13.5283V10.6787Z" fill="white"/>
</svg>
